<svg xmlns="http://www.w3.org/2000/svg" viewBox="0.002757251262664795 -0.00042141356971114874 84.09200286865234 73.4583511352539">
  <path d="M42 0h6.35a8.2 8.2 0 0 1 7.47 4.64c1.18 2.13 2.4 4.22 3.6 6.36l4.41 7.78c1.43 2.51 2.88 5 4.31 7.53l5.12 9.07c1.34 2.36 2.7 4.71 4 7.07 2 3.52 4 7 5.93 10.6a7.78 7.78 0 0 1-.3 7.8c-1.53 2.71-3.09 5.4-4.63 8.11-.73 1.27-1.44 2.56-2.17 3.83-.36.63-.48.64-.82 0-1-1.76-2-3.53-3-5.29-1.23-2.14-2.49-4.26-3.71-6.4s-2.3-4.16-3.47-6.23c-2-3.45-3.93-6.88-5.89-10.32-1.4-2.47-2.79-5-4.19-7.44s-2.81-4.9-4.2-7.36l-7-12.25c-1.4-2.46-2.82-4.9-4.21-7.36s-2.77-5.07-4.2-7.6c-.33-.59-.69-1.15-1-1.72s-.31-.82.46-.82z" fill="#1063ec" />
  <path d="M25.3 56.53h24.24a1.52 1.52 0 0 1 1.52.88c2.2 3.82 4.45 7.6 6.67 11.4.77 1.31 1.51 2.62 2.27 3.93.1.17.21.35.08.56s-.29.15-.47.15H13.94a7.63 7.63 0 0 1-6.85-4c-2.33-3.94-4.55-8-6.81-11.94-.46-.81-.4-.89.58-.89z" fill="#6faaf8" />
  <path d="M25.19 43.45H7.76c-.58 0-.56-.23-.31-.66.74-1.27 1.45-2.55 2.18-3.79 2-3.41 3.94-6.81 5.9-10.23l8-14c.43-.75.85-1.51 1.31-2.24s.55-.59.88 0l3.65 6.37 4.8 8.4 3.11 5.52 5.56 9.74c.47.83.42.93-.51.93z" fill="#428df2" />
</svg>
